<?xml version="1.0" encoding="utf-8"?><svg fill="none" viewBox="0 0 1010 550" xmlns="http://www.w3.org/2000/svg"><defs><clipPath id="cp-1080-1080"><rect height="1080" width="1080" y="0" x="0" /></clipPath><g id="comp_0"><g transform="matrix(0.545,-0.839,0.839,0.545,453.862,339.033)" id="Shape Layer 1"><animate repeatCount="indefinite" begin="3.9s" calcMode="discrete" fill="freeze" dur="0.3s" values="visible; hidden" keyTimes="0; 1" attributeName="visibility" /><g id="Shape 1"><path stroke-linejoin="miter" stroke-linecap="round" stroke-width="20" stroke-opacity="1" stroke="#22ffe8" d="M-119.5,-51L-367.5,-197" /></g></g><g transform="matrix(0.545,-0.839,0.839,0.545,426.862,352.033)" visibility="hidden" id="Shape Layer 7"><animate repeatCount="indefinite" begin="4.6s" calcMode="discrete" fill="freeze" dur="0.3s" values="visible; visible" keyTimes="0; 1" attributeName="visibility" /><g id="Shape 1"><path stroke-linejoin="miter" stroke-linecap="round" stroke-width="20" stroke-opacity="1" stroke="#ff8666" d="M-119.5,-51L-367.5,-197" /></g></g><g transform="matrix(0.545,-0.839,0.839,0.545,447.965,420.355)" visibility="hidden" id="Shape Layer 2"><animate repeatCount="indefinite" begin="4s" calcMode="discrete" fill="freeze" dur="0.3s" values="visible; hidden" keyTimes="0; 1" attributeName="visibility" /><g id="Shape 1"><path stroke-linejoin="miter" stroke-linecap="round" stroke-width="20" stroke-opacity="1" stroke="#ff8666" d="M-119.5,-51L-367.5,-197" /></g></g><g transform="matrix(0.545,-0.839,0.839,0.545,422.787,367.053)" visibility="hidden" id="Shape Layer 3"><animate repeatCount="indefinite" begin="4.267s" calcMode="discrete" fill="freeze" dur="0.3s" values="visible; hidden" keyTimes="0; 1" attributeName="visibility" /><g id="Shape 1"><path stroke-linejoin="miter" stroke-linecap="round" stroke-width="20" stroke-opacity="1" stroke="#fbc977" d="M-119.5,-51L-367.5,-197" /></g></g><g transform="matrix(0.545,-0.839,0.839,0.545,504.1,476.945)" visibility="hidden" id="Shape Layer 4"><animate repeatCount="indefinite" begin="4.2s" calcMode="discrete" fill="freeze" dur="0.3s" values="visible; hidden" keyTimes="0; 1" attributeName="visibility" /><g id="Shape 1"><path stroke-linejoin="miter" stroke-linecap="round" stroke-width="20" stroke-opacity="1" stroke="#ed5551" d="M-119.5,-51L-332.5,-175" /></g></g><g transform="matrix(0.545,-0.839,0.839,0.545,440.678,464.714)" visibility="hidden" id="Shape Layer 5"><animate repeatCount="indefinite" begin="4.4s" calcMode="discrete" fill="freeze" dur="0.3s" values="visible; hidden" keyTimes="0; 1" attributeName="visibility" /><g id="Shape 1"><path stroke-linejoin="miter" stroke-linecap="round" stroke-width="20" stroke-opacity="1" stroke="#fbc977" d="M-119.5,-51L-367.5,-197" /></g></g><g transform="matrix(0.545,-0.839,0.839,0.545,411.965,410.355)" visibility="hidden" id="Shape Layer 6"><animate repeatCount="indefinite" begin="4.467s" calcMode="discrete" fill="freeze" dur="0.3s" values="visible; hidden" keyTimes="0; 1" attributeName="visibility" /><g id="Shape 1"><path stroke-linejoin="miter" stroke-linecap="round" stroke-width="20" stroke-opacity="1" stroke="#ed5551" d="M-119.5,-51L-367.5,-197" /></g></g></g></defs><g id="rocket"><g transform="translate(421.342,174.628)"><animateTransform repeatCount="indefinite" type="translate" attributeName="transform" dur="4.033s" begin="3.9s" calcMode="spline" values="421.342 174.628; 421.342 188.628; 421.342 164.628; 421.342 188.628; 421.342 174.628; 421.342 188.628; 421.342 164.628; 421.342 188.628; 421.342 174.628; 421.342 188.628; 421.342 164.628; 421.342 188.628; 421.342 174.628" keyTimes="0; 0.066; 0.165; 0.264; 0.331; 0.397; 0.496; 0.595; 0.661; 0.744; 0.843; 0.942; 1" keySplines="0.333 0 0.667 1; 0.333 0 0.667 1; 0.333 0 0.667 1; 0.333 0 0.667 1; 0.333 0 0.667 1; 0.333 0 0.667 1; 0.333 0 0.667 1; 0.333 0 0.667 1; 0.333 0 0.667 1; 0.333 0 0.667 1; 0.333 0 0.667 1; 0.333 0 0.667 1" fill="freeze" /><g transform="scale(1,1) translate(-421.342,-442.628)"><g id="body"><g transform="translate(456.57,608.4)"><g transform="rotate(0)"><animateTransform repeatCount="indefinite" type="rotate" attributeName="transform" dur="4s" begin="3.9s" calcMode="spline" values="0; 1; 0; 1; 0; 1; 0" keyTimes="0; 0.167; 0.333; 0.5; 0.667; 0.833; 1" keySplines="0.333 0 0.667 1; 0.333 0 0.667 1; 0.297 0 0.667 1; 0.333 0 0.667 1; 0.297 0 0.667 1; 0.333 0 0.667 1" fill="freeze" /><g transform="scale(1,1) translate(-456.57,-608.4)"><g visibility="hidden" id="l hand"><animate repeatCount="indefinite" begin="4s" calcMode="discrete" fill="freeze" dur="3.933s" values="visible; visible" keyTimes="0; 1" attributeName="visibility" /><g transform="translate(661.906,489.587)"><g transform="rotate(0)"><animateTransform repeatCount="indefinite" type="rotate" attributeName="transform" dur="4s" begin="4s" calcMode="spline" values="0; 3; 0; 3; 0; 3; 0" keyTimes="0; 0.167; 0.333; 0.5; 0.667; 0.833; 1" keySplines="0.333 0 0.667 1; 0.333 0 0.667 1; 0.297 0 0.667 1; 0.333 0 0.667 1; 0.297 0 0.667 1; 0.333 0 0.667 1" fill="freeze" /><g transform="scale(1,1) translate(-661.906,-489.587)"><g id="Group 2" transform="matrix(1,0,0,1,771.272,447.935)"><path fill="#aec7e6" fill-opacity="1" d="M-97.695,77.651L-125.366,15.231C-125.366,15.231,-60.789,-12.314,-1.865,-38.634C43.904,-59.078,82.836,-80.39,89.063,-83.44C107.007,-92.23,133.566,-38.114,119.079,-29.901C108.827,-24.089,62.086,2.332,14.659,25.125C-40.421,51.596,-97.695,77.651,-97.695,77.651L-97.695,77.651Z" /></g><g id="Group 1" transform="matrix(1,0,0,1,0,0)"><g id="Group 8" transform="matrix(1,0,0,1,906.296,382.718)"><path fill="#ffc5b3" fill-opacity="1" d="M-20.283,-43.166C-30.196,-37.166,-37.728,-17.257,-37.728,-17.257C-37.728,-17.257,-52.919,-8.717,-38.276,12.961C-22.605,36.16,-15.701,26.156,-15.701,26.156C-15.701,26.156,20.998,5.147,30.009,-1.086C39.02,-7.319,35.157,-37.452,21.185,-41.318C7.213,-45.184,-10.404,-49.163,-20.283,-43.166L-20.283,-43.166Z" /></g><g id="Group 7" transform="matrix(1,0,0,1,920.511,382.176)"><path fill="#f2a29b" fill-opacity="1" d="M15.825,-0.58C10.965,2.769,-12.27,12.53,-15.571,12.049C-26.395,8.031,-24.78,-2.668,-24.78,-2.668C-30.475,-4.179,-35.643,-15.204,-24.378,-21.661C-12.232,-28.623,-15.202,-32.154,-15.202,-32.154C-15.202,-32.154,4.845,-30.478,18.119,-28.527C22.084,-18.144,21.56,-4.532,15.825,-0.58Z" /></g><g id="Group 6" transform="matrix(1,0,0,1,939.885,372.63)"><path fill="#e88282" fill-opacity="1" d="M-4.084,-11.957L-4.084,-11.957ZM-3.555,12.669C-7.741,13.007,-11.951,10.9,-14.077,6.928C-16.919,1.619,-14.939,-4.998,-9.599,-7.876C-9.534,-7.915,-9.404,-7.993,-9.272,-8.038C-5.814,-9.813,-4.457,-11.52,-4.163,-12.087C-4.21,-12.253,-4.357,-12.589,-4.686,-13.098C-5.541,-14.422,-6.589,-15.618,-9.833,-15.4C-12.334,-15.232,-14.635,-14.265,-14.635,-14.265C-20.064,-11.652,-26.593,-13.948,-29.22,-19.406C-31.833,-24.835,-29.541,-31.375,-24.078,-33.991C-23.095,-34.444,-17.883,-36.797,-11.154,-37.21C-0.672,-37.853,8.144,-33.505,13.688,-24.98C18.538,-17.523,18.179,-10.873,17.042,-6.597C15.14,0.557,9.335,6.938,0.757,11.369L0.689,11.375C-0.677,12.131,-2.106,12.518,-3.524,12.633L-3.555,12.669Z" /></g><g id="Group 5" transform="matrix(1,0,0,1,921.664,407.017)"><path fill="#ffc5b3" fill-opacity="1" d="M-31.071,1.823C-31.071,1.823,-9.941,9.353,2.329,3.065C12.248,-2.018,23.413,-12.335,27.356,-16.049C28.303,-16.941,28.649,-18.333,28.226,-19.586C26.931,-23.423,23.094,-30.955,13.559,-28.254C0.969,-24.688,-34.206,-2.07,-34.206,-2.07L-31.072,1.823L-31.071,1.823Z" /></g><g id="Group 4" transform="matrix(1,0,0,1,930.152,397.816)"><path fill="#f2a29b" fill-opacity="1" d="M18.245,-13.729C11.193,-24.882,-7.422,-9.333,-12.329,-6.06C-18.068,-2.232,-25.004,-3.54,-25.212,-3.591C-14.48,-9.963,-1.535,-17.154,5.106,-19.056C12.213,-21.091,16.184,-17.368,18.242,-13.763L18.245,-13.729Z" /></g><g id="Group 3" transform="matrix(1,0,0,1,939.82,369.21)"><path fill="#e89490" fill-opacity="1" d="M-2.607,11.465C-2.607,11.465,-2.674,11.471,-2.705,11.507C-2.671,11.504,-2.638,11.501,-2.607,11.465ZM-7.311,12.967C-11.328,13.292,-15.383,11.372,-17.592,7.681C-20.695,2.495,-18.994,-4.201,-13.808,-7.304C-13.645,-7.385,-13.388,-7.546,-13.028,-7.74C-9.251,-9.778,-8.183,-11.292,-7.915,-11.755C-7.962,-11.921,-8.128,-12.282,-8.442,-12.8C-11.16,-16.998,-17.311,-14.496,-18.522,-13.922L-18.421,-13.931C-18.424,-13.965,-27.867,-33.691,-27.867,-33.691C-26.884,-34.144,-21.672,-36.497,-14.943,-36.91C-4.461,-37.553,4.352,-33.203,9.899,-24.68C14.71,-17.288,14.421,-10.707,13.341,-6.473C11.509,0.709,6.152,6.748,-2.607,11.465L-2.77,11.546C-4.198,12.375,-5.758,12.842,-7.311,12.967Z" /></g><g id="Group 2" transform="matrix(1,0,0,1,927.321,370.077)"><path fill="#f2a29b" fill-opacity="1" d="M1.222,13.473C1.157,13.512,1.093,13.551,0.994,13.593C1.093,13.551,1.157,13.512,1.222,13.473ZM-3.977,15.15C-8.264,15.496,-12.557,13.492,-14.961,9.582C-18.365,4.047,-16.639,-3.194,-11.104,-6.598C-10.746,-6.797,-10.453,-6.956,-10.16,-7.116C-9.509,-7.474,-8.964,-7.89,-8.526,-8.336C-6.171,-10.735,-8.498,-14.702,-11.763,-13.918C-12.83,-13.662,-13.948,-13.198,-15.041,-12.43C-21.361,-7.808,-38.689,-23.33,-29.455,-31.008C-25.473,-34.286,0.022,-47.347,14.595,-25.393C19.818,-17.524,19.402,-10.391,18.247,-5.844C16.881,-0.467,12.78,7.238,1.027,13.591L0.926,13.599C-0.629,14.54,-2.287,15.048,-3.975,15.184L-3.977,15.15Z" /></g><g id="Group 1" transform="matrix(1,0,0,1,912.772,374.259)"><path fill="#ffc5b3" fill-opacity="1" d="M-2.398,17.827C-6.415,18.152,-10.511,16.397,-12.995,12.839C-16.723,7.5,-15.444,0.192,-10.105,-3.535L-9.75,-3.767L-9.75,-3.767C-7.397,-5.35,-7.828,-8.941,-10.48,-9.858C-15.339,-11.538,-21.417,-8.975,-21.516,-8.933C-27.717,-7.039,-29.475,-15.323,-31.369,-21.524C-33.263,-27.725,-29.785,-34.322,-23.552,-36.224C-13.405,-39.321,8.076,-40.211,16.936,-21.283C23.097,-8.121,18.094,5.671,3.542,15.648L3.382,15.763C1.613,16.993,-0.403,17.7,-2.395,17.861L-2.398,17.827Z" /></g></g></g></g></g></g></g></g></g></g></g></g></g><g id="rocket"><g transform="translate(421.342,174.628)"><animateTransform repeatCount="indefinite" type="translate" attributeName="transform" dur="4.033s" begin="3.9s" calcMode="spline" values="421.342 174.628; 421.342 188.628; 421.342 164.628; 421.342 188.628; 421.342 174.628; 421.342 188.628; 421.342 164.628; 421.342 188.628; 421.342 174.628; 421.342 188.628; 421.342 164.628; 421.342 188.628; 421.342 174.628" keyTimes="0; 0.066; 0.165; 0.264; 0.331; 0.397; 0.496; 0.595; 0.661; 0.744; 0.843; 0.942; 1" keySplines="0.333 0 0.667 1; 0.333 0 0.667 1; 0.333 0 0.667 1; 0.333 0 0.667 1; 0.333 0 0.667 1; 0.333 0 0.667 1; 0.333 0 0.667 1; 0.333 0 0.667 1; 0.333 0 0.667 1; 0.333 0 0.667 1; 0.333 0 0.667 1; 0.333 0 0.667 1" fill="freeze" /><g transform="scale(1,1) translate(-421.342,-442.628)"><g id="body"><g transform="translate(456.57,608.4)"><g transform="rotate(0)"><animateTransform repeatCount="indefinite" type="rotate" attributeName="transform" dur="4s" begin="3.9s" calcMode="spline" values="0; 1; 0; 1; 0; 1; 0" keyTimes="0; 0.167; 0.333; 0.5; 0.667; 0.833; 1" keySplines="0.333 0 0.667 1; 0.333 0 0.667 1; 0.297 0 0.667 1; 0.333 0 0.667 1; 0.297 0 0.667 1; 0.333 0 0.667 1" fill="freeze" /><g transform="scale(1,1) translate(-456.57,-608.4)"><g id="l hand 2"><animate repeatCount="indefinite" begin="3.9s" calcMode="discrete" fill="freeze" dur="0.1s" values="visible; hidden" keyTimes="0; 1" attributeName="visibility" /><g transform="translate(661.906,489.587)"><g transform="rotate(0.182)"><animateTransform repeatCount="indefinite" type="rotate" attributeName="transform" dur="4s" begin="0s" calcMode="spline" values="0; 3; 0; 3; 0; 3; 0" keyTimes="0; 0.167; 0.333; 0.5; 0.667; 0.833; 1" keySplines="0.333 0 0.667 1; 0.333 0 0.667 1; 0.297 0 0.667 1; 0.333 0 0.667 1; 0.297 0 0.667 1; 0.333 0 0.667 1" fill="freeze" /><g transform="scale(1,1) translate(-661.906,-489.587)"><g id="Group 2" transform="matrix(1,0,0,1,771.272,447.935)"><path fill="#aec7e6" fill-opacity="1" d="M-97.695,77.651L-125.366,15.231C-125.366,15.231,-60.77,-12.328,-1.656,-38.099C44.329,-58.143,84.187,-78.521,90.486,-81.403C108.621,-89.703,133.702,-35.01,119.032,-27.195C108.713,-21.688,62.568,3.164,15.239,25.405C-40.327,51.482,-97.695,77.651,-97.695,77.651L-97.695,77.651Z" /></g><g id="Group 1" transform="matrix(1,0,0,1,0,0)"><g id="Group 8" transform="matrix(1,0,0,1,906.296,382.718)"><path fill="#ffc5b3" fill-opacity="1" d="M-18.262730988515372,-40.40007175813302C-28.311,-34.673,-36.348,-15.006,-36.348,-15.006C-36.348,-15.006,-51.73,-6.883,-37.687,15.131C-22.66,38.689,-15.508,28.889,-15.508,28.889C-15.508,28.889,21.66,8.888,30.815,2.905C39.969,-3.078,36.905,-33.245,23.065,-37.469C9.225,-41.693,-8.248,-46.125,-18.263,-40.4L-18.263,-40.4Z" /></g><g id="Group 7" transform="matrix(1,0,0,1,920.511,382.176)"><path fill="#f2a29b" fill-opacity="1" d="M16.631481507719037,3.412224183131109C11.694,6.626,-11.745,15.757,-15.026,15.19C-25.721,10.897,-23.829,0.264,-23.829,0.264C-29.472,-1.393,-34.339,-12.529,-22.93,-18.676C-10.628,-25.304,-13.499,-28.905,-13.499,-28.905C-13.499,-28.905,6.46,-26.707,19.653,-24.413C23.337,-13.949,22.457,-0.381,16.631,3.412Z" /></g><g id="Group 6" transform="matrix(1,0,0,1,939.885,372.63)"><path fill="#e88282" fill-opacity="1" d="M-2.7277726642196667,-7.9324102348413925L-2.728,-7.932ZM-2.845615238363458,16.652937343288322C-7.031,16.881,-11.177,14.668,-13.194,10.649C-15.89,5.277,-13.741,-1.273,-8.338,-4.005C-8.272,-4.042,-8.14,-4.117,-8.007,-4.158C-4.51,-5.838,-3.111,-7.506,-2.803,-8.064C-2.846,-8.231,-2.984,-8.57,-3.299,-9.087C-4.117,-10.43,-5.131,-11.651,-8.374,-11.518C-10.874,-11.416,-13.195,-10.512,-13.195,-10.512C-18.68,-8.047,-25.135,-10.509,-27.613,-16.024C-30.078,-21.51,-27.619,-27.975,-22.1,-30.442C-21.107,-30.868,-15.845,-33.079,-9.12,-33.315C1.356,-33.682,10.038,-29.112,15.346,-20.461C19.99,-12.893,19.458,-6.267,18.211,-2.03C16.126,5.058,10.166,11.273,1.491,15.469L1.423,15.473C0.04,16.192,-1.396,16.54,-2.814,16.618L-2.846,16.653Z" /></g><g id="Group 5" transform="matrix(1,0,0,1,921.664,407.017)"><path fill="#ffc5b3" fill-opacity="1" d="M-30.877588285178668,4.555624527027078C-30.878,4.556,-9.992,12.623,2.416,6.671C12.446,1.859,23.857,-8.142,27.889,-11.745C28.857,-12.61,29.239,-13.99,28.849,-15.251C27.658,-19.114,24.027,-26.729,14.442,-24.285C1.787,-21.057,-33.904,0.589,-33.904,0.589L-30.878,4.556L-30.878,4.556Z" /></g><g id="Group 4" transform="matrix(1,0,0,1,930.152,397.816)"><path fill="#f2a29b" fill-opacity="1" d="M18.959388136635965,-9.426097500498644C12.215,-20.739,-6.766,-5.713,-11.748,-2.575C-17.575,1.094,-24.461,-0.394,-24.667,-0.45C-13.792,-6.526,-0.687,-13.362,5.989,-15.086C13.134,-16.93,16.998,-13.111,18.957,-9.46L18.959,-9.426Z" /></g><g id="Group 3" transform="matrix(1,0,0,1,939.82,369.21)"><path fill="#e89490" fill-opacity="1" d="M-1.7783160157210327,15.482397413596942C-1.778,15.482,-1.845,15.487,-1.877,15.522C-1.843,15.52,-1.81,15.518,-1.778,15.482ZM-6.51124177743643,16.857593128455388C-10.528,17.076,-14.524,15.055,-16.631,11.314C-19.591,6.058,-17.718,-0.578,-12.462,-3.539C-12.298,-3.615,-12.037,-3.769,-11.673,-3.953C-7.851,-5.888,-6.745,-7.37,-6.466,-7.825C-6.508,-7.992,-6.665,-8.357,-6.964,-8.882C-9.566,-13.142,-15.769,-10.807,-16.992,-10.266L-16.891,-10.272C-16.893,-10.306,-25.798,-30.236,-25.798,-30.236C-24.806,-30.662,-19.544,-32.873,-12.819,-33.109C-2.343,-33.476,6.336,-28.904,11.648,-20.255C16.254,-12.753,15.793,-6.194,14.605,-1.998C12.588,5.12,7.085,11.005,-1.778,15.482L-1.943,15.559C-3.39,16.349,-4.958,16.774,-6.511,16.858Z" /></g><g id="Group 2" transform="matrix(1,0,0,1,927.321,370.077)"><path fill="#f2a29b" fill-opacity="1" d="M1.9945523710042223,17.25664598784278C1.929,17.294,1.864,17.331,1.764,17.37C1.864,17.331,1.929,17.294,1.995,17.257ZM-3.2369695664920086,18.79370784332775C-7.524,19.027,-11.755,16.914,-14.051,12.95C-17.302,7.338,-15.39,0.158,-9.778,-3.093C-9.416,-3.282,-9.119,-3.433,-8.823,-3.585C-8.164,-3.925,-7.609,-4.326,-7.16,-4.76C-4.747,-7.091,-6.965,-11.111,-10.244,-10.414C-11.315,-10.187,-12.442,-9.753,-13.553,-9.016C-19.981,-4.569,-36.863,-20.511,-27.448,-27.93C-23.389,-31.097,2.392,-43.46,16.357,-21.173C21.362,-13.184,20.76,-6.078,19.488,-1.571C17.984,3.758,13.69,11.338,1.797,17.369L1.696,17.375C0.12,18.273,-1.548,18.736,-3.236,18.828L-3.237,18.794Z" /></g><g id="Group 1" transform="matrix(1,0,0,1,912.772,374.259)"><path fill="#ffc5b3" fill-opacity="1" d="M-1.8090089492870058,21.115468218368914C-5.826,21.334,-9.867,19.476,-12.252,15.861C-15.831,10.436,-14.364,3.177,-8.939,-0.401L-8.579,-0.624L-8.579,-0.624C-6.189,-2.141,-6.525,-5.736,-9.147,-6.72C-13.951,-8.524,-20.083,-6.126,-20.183,-6.087C-26.42,-4.359,-27.957,-12.671,-29.684,-18.908C-31.411,-25.145,-27.768,-31.636,-21.499,-33.371C-11.293,-36.195,10.164,-36.519,18.508,-17.401C24.31,-4.107,18.956,9.524,4.175,19.097L4.012,19.208C2.215,20.388,0.185,21.041,-1.807,21.149L-1.809,21.115Z" /></g></g></g></g></g></g></g></g></g></g></g></g></g><g id="l leg"><g transform="translate(513.211,317.748)"><g transform="rotate(0)"><animateTransform repeatCount="indefinite" type="rotate" attributeName="transform" dur="4s" begin="3.9s" calcMode="spline" values="0; -13; 0; -13; 0; -13; 0; -13; 0" keyTimes="0; 0.125; 0.25; 0.375; 0.5; 0.625; 0.75; 0.875; 1" keySplines="0.333 0 0.667 1; 0.333 0 0.667 1; 0.167 0 0.667 1; 0.333 0 0.667 1; 0.195 0 0.667 1; 0.333 0 0.667 1; 0.167 0 0.667 1; 0.333 0 0.667 1" fill="freeze" /><g transform="scale(1,1) translate(-513.211,-585.748)"><g id="Group 2" transform="matrix(1,0,0,1,200.614,475.736)"><path fill="#071f3b" fill-opacity="1" d="M28.778,-80.645C12.179,-78.913,1.805,-66.647,-4.062,-53.5C-9.916,-40.383,-10.127,-35.082,-17.345,-25.306C-24.555,-15.542,-42.829,4.41,-40.666,28.39C-38.503,52.37,-23.906,59.816,-3.307,53.012C13.259,47.54,18.471,26.377,21.907,13.424C25.343,0.471,31.364,-9.224,39.355,-12.987C47.346,-16.75,68.459,-37.576,60.545,-51.149C52.631,-64.722,51.274,-67.729,48.843,-71.405C46.412,-75.081,40.892,-81.909,28.705,-80.626L28.778,-80.645Z" /></g><g id="Group 1" transform="matrix(1,0,0,1,0,0)"><g id="Group 2" transform="matrix(1,0,0,1,354.203,529.914)"><path fill="#114077" fill-opacity="1" d="M165.879,10.236L163,64.596L160.934,104.054C-69.647,124.782,-138.09,-43.803,-151.267,-73.712C-153.559,-78.915,-152.26,-84.113,-148.76,-88.894C-136.496,-105.647,-97.273,-117.227,-91.707,-105.607C-80.912,-83.073,-70.057,-53.712,-39.915,-28.658C1.577,5.83,66.28,27.696,165.879,10.236Z" /></g><g id="Group 1" transform="matrix(1,0,0,1,352.798,545.2)"><path fill="#0c3461" fill-opacity="1" d="M164.439,49.277L162.373,88.734C-68.208,109.462,-136.644,-59.116,-149.822,-89.025C-152.114,-94.228,-150.813,-99.423,-147.315,-104.206C-140.417,-85.31,-119.298,-35.2,-86.308,-2.276C-56.262,27.71,-12.255,50.361,26.999,34.205C55.923,22.317,92.163,12.867,118.31,24.891C135.99,33.02,150.993,35.188,164.439,49.311L164.439,49.277Z" /></g></g></g></g></g></g><g id="r leg"><g transform="translate(448.252,340.091)"><g transform="rotate(-4)"><animateTransform repeatCount="indefinite" type="rotate" attributeName="transform" dur="4s" begin="3.9s" calcMode="spline" values="-4; 11; -4; 11; -4; 11; -4; 11; -4" keyTimes="0; 0.125; 0.25; 0.375; 0.5; 0.625; 0.75; 0.875; 1" keySplines="0.333 0 0.667 1; 0.333 0 0.667 1; 0.167 0 0.667 1; 0.333 0 0.667 1; 0.195 0 0.667 1; 0.333 0 0.667 1; 0.167 0 0.667 1; 0.333 0 0.667 1" fill="freeze" /><g transform="scale(1,1) translate(-448.252,-608.091)"><g id="Group 3" transform="matrix(1,0,0,1,179.384,567.004)"><path fill="#082647" fill-opacity="1" d="M12.702,15.829C12.702,15.829,11.166,14.946,9.335,13.876C7.478,12.791,-1.593,1.371,-11.988,-3.524C-22.383,-8.419,-24.302,-9.905,-29.054,-7.695C-39.334,-2.914,-51.772,19.21,-55.908,22.291C-62.328,27.073,-74.341,40.938,-81.109,55.446C-87.336,68.796,-87.981,81.708,-86.987,88.759C-85.725,97.714,-73.068,109.764,-59.94,101.064C-58.105,99.848,-37.965,75.853,-29.418,73.24C-22.019,70.978,-16.946,69.467,-13.31,70.569C-12.09,70.939,-11.714,71.137,-10.617,71.751C3.489,79.793,24.903,22.899,12.758,15.792L12.702,15.829Z" /></g><g id="Group 2" transform="matrix(1,0,0,1,329.531,643.217)"><path fill="#114077" fill-opacity="1" d="M130.366,26.72C109.469,63.705,36.916,59.907,-23.743,52.727C-99.068,43.819,-155.416,9.959,-168.557,-2.304C-172.071,-5.583,-172.147,-11.829,-170.127,-19.019C-164.587,-38.74,-143.208,-65.829,-133.069,-60.033C-122.996,-54.275,-57.511,-26.392,-15.818,-33.877C20.015,-40.312,43.661,-82.779,102.661,-79.866C104.862,-79.764,106.996,-79.562,109.028,-79.223C155.462,-72.144,153.465,-14.126,130.366,26.754L130.366,26.72Z" /></g><g id="Group 1" transform="matrix(1,0,0,1,329.531,643.567)"><path fill="#0c3461" fill-opacity="1" d="M130.366,26.37C109.469,63.355,36.916,59.556,-23.743,52.376C-99.068,43.468,-155.416,9.609,-168.557,-2.654C-172.071,-5.933,-172.148,-12.179,-170.127,-19.369C-147.982,-3.733,-121.421,-2.796,-45.114,18.846C18.865,37,78.817,27.013,78.986,5.54C79.122,-11.632,78.513,-27.516,84.677,-43.468C87.962,-51.935,97.648,-73.747,109.028,-79.606C155.462,-72.527,153.465,-14.51,130.366,26.37Z" /></g></g></g></g></g><g transform="matrix(1,0,0,1,0,-268)" visibility="hidden" id="strk"><animate repeatCount="indefinite" begin="7.467s" calcMode="discrete" fill="freeze" dur="0.467s" values="visible; visible" keyTimes="0; 1" attributeName="visibility" /><use clip-path="url(#cp-1080-1080)" height="1080" width="1080" y="0" x="0" xlink:href="#comp_0" href="#comp_0" /></g><g transform="matrix(1,0,0,1,0,-268)" id="strk"><animate repeatCount="indefinite" begin="3.9s" calcMode="discrete" fill="freeze" dur="0.533s" values="visible; hidden" keyTimes="0; 1" attributeName="visibility" /><use clip-path="url(#cp-1080-1080)" height="1080" width="1080" y="0" x="0" xlink:href="#comp_0" href="#comp_0" /></g><g transform="matrix(1,0,0,1,0,-268)" visibility="hidden" id="strk"><animate repeatCount="indefinite" begin="4.2s" calcMode="discrete" fill="freeze" dur="1s" values="visible; hidden" keyTimes="0; 1" attributeName="visibility" /><use clip-path="url(#cp-1080-1080)" height="1080" width="1080" y="0" x="0" xlink:href="#comp_0" href="#comp_0" /></g><g transform="matrix(1,0,0,1,0,-268)" visibility="hidden" id="strk"><animate repeatCount="indefinite" begin="4.933s" calcMode="discrete" fill="freeze" dur="1s" values="visible; hidden" keyTimes="0; 1" attributeName="visibility" /><use clip-path="url(#cp-1080-1080)" height="1080" width="1080" y="0" x="0" xlink:href="#comp_0" href="#comp_0" /></g><g transform="matrix(1,0,0,1,0,-268)" visibility="hidden" id="strk"><animate repeatCount="indefinite" begin="5.767s" calcMode="discrete" fill="freeze" dur="1s" values="visible; hidden" keyTimes="0; 1" attributeName="visibility" /><use clip-path="url(#cp-1080-1080)" height="1080" width="1080" y="0" x="0" xlink:href="#comp_0" href="#comp_0" /></g><g transform="matrix(1,0,0,1,0,-268)" visibility="hidden" id="strk"><animate repeatCount="indefinite" begin="6.567s" calcMode="discrete" fill="freeze" dur="1s" values="visible; hidden" keyTimes="0; 1" attributeName="visibility" /><use clip-path="url(#cp-1080-1080)" height="1080" width="1080" y="0" x="0" xlink:href="#comp_0" href="#comp_0" /></g><g id="rocket"><g transform="translate(421.342,174.628)"><animateTransform repeatCount="indefinite" type="translate" attributeName="transform" dur="4.033s" begin="3.9s" calcMode="spline" values="421.342 174.628; 421.342 188.628; 421.342 164.628; 421.342 188.628; 421.342 174.628; 421.342 188.628; 421.342 164.628; 421.342 188.628; 421.342 174.628; 421.342 188.628; 421.342 164.628; 421.342 188.628; 421.342 174.628" keyTimes="0; 0.066; 0.165; 0.264; 0.331; 0.397; 0.496; 0.595; 0.661; 0.744; 0.843; 0.942; 1" keySplines="0.333 0 0.667 1; 0.333 0 0.667 1; 0.333 0 0.667 1; 0.333 0 0.667 1; 0.333 0 0.667 1; 0.333 0 0.667 1; 0.333 0 0.667 1; 0.333 0 0.667 1; 0.333 0 0.667 1; 0.333 0 0.667 1; 0.333 0 0.667 1; 0.333 0 0.667 1" fill="freeze" /><g transform="scale(1,1) translate(-421.342,-442.628)"><g transform="matrix(1,0,0,1,326.453,486.75)" id="Layer 1"><g id="Group 1"><path fill="#ed4944" fill-opacity="1" d="M-0.271,-85.124C-1.524,-84.514,-2.777,-83.837,-4.03,-83.092C-36.883,-63.821,-45.283,-15.253,-22.726,25.39C-1.05,64.509,41.354,82.019,73.801,66.101L71.667,67.151C48.602,78.463,31.532,86.355,22.15,84.966C18.932,84.492,19.373,82.562,19.644,81.41C20.491,77.549,17.409,73.315,-2.201,75.042C-19.948,76.6,-28.043,77.311,-34.343,74.06C-51.379,65.288,-47.755,54.823,-45.994,49.81C-42.472,39.683,-41.151,35.89,-44.606,30.369C-51.719,18.989,-70.211,20.919,-73.801,5.441C-73.564,3.206,-73.936,0.022,-72.988,-2.01C-72.277,-3.602,-71.261,-5.668,-70.448,-7.226C-64.69,-18.64,-53.276,-25.041,-45.757,-34.897C-45.723,-34.931,-42.201,-40.044,-41.862,-45.294C-41.693,-48.037,-42.709,-48.85,-45.249,-50.239C-48.805,-52.17,-48.128,-54.134,-44.199,-59.045C-38.407,-66.327,-15.14,-77.775,-2.642,-83.939L-0.271,-85.091L-0.271,-85.091L-0.271,-85.124Z" /></g></g></g></g></g><g id="rocket"><g transform="translate(421.342,174.628)"><animateTransform repeatCount="indefinite" type="translate" attributeName="transform" dur="4.033s" begin="3.9s" calcMode="spline" values="421.342 174.628; 421.342 188.628; 421.342 164.628; 421.342 188.628; 421.342 174.628; 421.342 188.628; 421.342 164.628; 421.342 188.628; 421.342 174.628; 421.342 188.628; 421.342 164.628; 421.342 188.628; 421.342 174.628" keyTimes="0; 0.066; 0.165; 0.264; 0.331; 0.397; 0.496; 0.595; 0.661; 0.744; 0.843; 0.942; 1" keySplines="0.333 0 0.667 1; 0.333 0 0.667 1; 0.333 0 0.667 1; 0.333 0 0.667 1; 0.333 0 0.667 1; 0.333 0 0.667 1; 0.333 0 0.667 1; 0.333 0 0.667 1; 0.333 0 0.667 1; 0.333 0 0.667 1; 0.333 0 0.667 1; 0.333 0 0.667 1" fill="freeze" /><g transform="scale(1,1) translate(-421.342,-442.628)"><g id="Group 4" transform="matrix(1,0,0,1,0,0)"><g id="Group 4" transform="matrix(1,0,0,1,0,0)"><g id="Group 6" transform="matrix(1,0,0,1,0,0)"><g id="Group 2" transform="matrix(1,0,0,1,348.542,478.835)"><path fill="#ff8666" fill-opacity="1" d="M-40.176,34.694C-66.628,-14.044,-54.976,-72.264,-15.688,-90.723C-25.916,-85.914,-35.366,-78.089,-41.801,-69.419C-63.342,-39.851,-63.512,-3.069,-48.169,30.969C-33.673,60.096,-13.148,80.621,20.078,88.885C34.879,91.865,45.479,91.188,58.925,87.09C40.534,96.98,-18.026,82.551,-40.176,34.694Z" /></g><g id="Group 1" transform="matrix(1,0,0,1,413.462,563.605)"><path fill="#114077" fill-opacity="1" d="M-1.761,0.762C-0.576,0.288,0.609,-0.22,1.761,-0.762C0.677,-0.322,-0.542,0.22,-1.761,0.762Z" /></g></g><g id="Group 5" transform="matrix(1,0,0,1,423.029,446.138)"><g id="Group 1"><path fill="#3d75a9" fill-opacity="1" d="M-89.803,-58.196L46.927,-122.445C45.369,-121.7,43.845,-120.922,42.321,-120.041C5.946,-98.974,-3.098,-43.836,22.067,3.107C46.216,48.119,93.057,69.254,128.924,52.421L-7.805,116.67C-43.672,133.537,-90.513,112.369,-114.662,67.357C-139.861,20.414,-130.784,-34.758,-94.409,-55.791C-92.885,-56.672,-91.36,-57.485,-89.802,-58.196L-89.802,-58.196L-89.803,-58.196Z" /></g></g><g id="Group 4" transform="matrix(1,0,0,1,516.311,409.979)"><path fill="#114077" fill-opacity="1" d="M85.463,5.432C85.395,2.079,85.125,-2.189,84.617,-6.118C87.597,17.048,82.381,42.79,64.634,59.013C44.753,77.607,15.151,76.489,-7.101,62.738C-29.59,49.224,-45.339,25.922,-51.808,0.656C-63.764,-42.155,-41.376,-92.687,5.736,-90.079C25.753,-88.961,44.245,-77.92,57.657,-63.492C51.561,-70.063,44.651,-75.82,36.963,-80.494C20.875,-90.926,-4.019,-97.395,-26.406,-92.755C-83.543,-83.001,-101.426,-16.041,-70.47,40.622C-42.528,90.41,10.749,109.884,49.461,80.418C73.542,63.314,86.345,33.035,85.464,5.364L85.463,5.432Z" /></g><g id="Group 3" transform="matrix(1,0,0,1,572.85,382.083)"><path fill="#fbc977" fill-opacity="1" d="M6.774,12.633C1.355,15.749,-6.062,12.633,-9.788,5.656C-13.547,-1.321,-12.193,-9.517,-6.774,-12.633C-1.355,-15.749,6.062,-12.633,9.788,-5.656C13.547,1.321,12.193,9.517,6.774,12.633Z" /></g><g id="Group 2" transform="matrix(1,0,0,1,0,0)"><g id="Group 2" transform="matrix(1,0,0,1,532.648,387.739)"><path fill="#335370" fill-opacity="1" d="M0,0L0,0L0,0L0,0Z" /></g><g id="Group 1" transform="matrix(1,0,0,1,565.43,385.602)"><path fill="#0c3461" fill-opacity="1" d="M-2.368,2.137C-10.903,-14.391,7.623,-25.906,17.208,-9.209C25.743,7.319,7.217,18.834,-2.368,2.137ZM24.761,31.299C41.154,13.145,32.991,-16.355,15.989,-30.445C8.538,-36.779,-2.029,-40.741,-11.716,-38.641C-35.357,-33.527,-38.54,-2.435,-27.77,16.024C-18.151,34.991,7.488,48.504,24.761,31.299L24.761,31.299Z" /></g></g><g id="Group 1" transform="matrix(1,0,0,1,531.573,401.464)"><path fill="#e9f0f7" fill-opacity="1" d="M51.878,65.088C65.459,50.965,70.844,30.678,70.099,11.44C69.726,2.668,68.101,-6.003,67.085,-14.707C67.356,-12.573,67.492,-10.44,67.492,-8.306C67.661,4.734,60.379,18.857,47.068,22.379C28.745,27.188,11.269,12.693,4.36,-3.395C-3.802,-20.6,-0.721,-47.222,19.702,-53.826C32.132,-57.856,45.917,-51.286,54.079,-42.277C52.115,-44.377,49.914,-46.748,48.051,-48.78C43.75,-53.386,39.651,-58.094,34.943,-62.124C21.158,-74.114,3.242,-82.276,-15.251,-81.531C-57.35,-79.33,-75.538,-36.62,-68.798,0.805C-64.497,26.444,-50.542,50.66,-29.713,66.341C-5.395,85.037,29.457,88.661,51.912,65.088L51.878,65.088Z" /></g></g><g id="Group 3" transform="matrix(1,0,0,1,0,0)"><g id="Group 5" transform="matrix(1,0,0,1,344.623,350.145)"><path fill="#aec7e6" fill-opacity="1" d="M14.818,3.624C8.518,-4.166,0.999,-11.143,-7.942,-15.749C-13.53,-18.729,-19.83,-20.321,-26.13,-20.321C-24.945,-20.253,-23.726,-20.118,-22.574,-19.915C-12.82,-18.188,-4.183,-12.667,3.133,-6.164C10.144,-0.237,19.898,13.175,25.825,20.321L26.13,17.781L14.818,3.658L14.818,3.624Z" /></g><g id="Group 4" transform="matrix(1,0,0,1,332.329,353.501)"><path fill="#175294" fill-opacity="1" d="M25.283,0.911C17.595,-8.572,8.078,-17.039,-3.404,-21.408C-9.602,-23.745,-16.613,-24.659,-22.98,-22.424C-26.096,-21.51,-35.207,-15.244,-38.154,-13.652C-38.154,-13.652,-35.003,-15.176,-33.31,-15.684C-23.251,-18.732,-12.582,-14.804,-4.115,-9.317C2.862,-4.745,8.924,1.148,14.174,7.651L27.044,23.705L38.154,16.999L25.283,0.945L25.283,0.911Z" /></g><g id="Group 3" transform="matrix(1,0,0,1,316.139,357.172)"><path fill="#aec7e6" fill-opacity="1" d="M30.364,3.98C19.831,-9.026,2.422,-23.488,-15.427,-20.067C-20.575,-19.423,-36.291,-7.941,-40.897,-5.435C-41.608,-5.029,-42.014,-4.25,-42.319,-3.505C-42.624,-2.895,-42.929,-2.116,-43.2,-1.54C-42.421,-2.556,-22.98,-14.681,-21.016,-15.562C-12.312,-19.389,-2.354,-16.646,5.605,-12.277C11.227,-9.161,16.308,-5.13,20.846,-0.558C25.486,3.879,34.224,15.53,38.424,20.576L43.2,20.034L30.33,3.98L30.364,3.98Z" /></g><g id="Group 2" transform="matrix(1,0,0,1,339.983,385.504)"><path fill="#98add4" fill-opacity="1" d="M14.581,-7.79L19.356,-8.332L-16.579,8.332L-19.356,7.925L14.581,-7.79Z" /></g><g id="Group 1" transform="matrix(1,0,0,1,313.508,366.646)"><path fill="#e9f0f7" fill-opacity="1" d="M41.057,11.068L7.12,26.817L-5.954,12.017L-36.267,-1.497C-37.791,-2.174,-39.044,-3.529,-39.891,-5.053C-41.314,-7.627,-41.584,-10.642,-39.857,-11.726L-20.89,-23.681C-7.715,-31.979,13.385,-23.376,29.744,-2.987L41.057,11.136L41.057,11.068Z" /></g></g><g id="Group 2" transform="matrix(1,0,0,1,0,0)"><g id="Group 4" transform="matrix(1,0,0,1,288.262,505.799)"><path fill="#e9f0f7" fill-opacity="1" d="M47.369,-22.65L32.06,-14.488C11.163,-3.345,-12.308,8.171,-25.72,13.861C-26.499,14.2,-27.211,14.47,-27.922,14.775L-46.482,22.362C-49.192,23.48,-45.263,21.143,-40.487,18.806L-4.349,1.092L13.026,-8.086L47.369,-22.65L47.369,-22.65Z" /></g><g id="Group 3" transform="matrix(1,0,0,1,297.764,524.316)"><path fill="#aec7e6" fill-opacity="1" d="M32.11,-15.664C18.698,-8.518,5.116,-1.609,-8.567,4.928C-20.252,10.72,-36.204,17.222,-48.397,22.167C-48.702,22.302,-49.617,22.642,-49.549,22.54C-48.431,23.353,-47.314,24.166,-46.196,24.945C-30.515,18.916,-12.733,11.16,2.203,3.675C17.275,-3.675,33.667,-12.413,48.536,-20.372L49.552,-24.945L32.177,-15.664L32.11,-15.664Z" /></g><g id="Group 2" transform="matrix(1,0,0,1,294.057,515.985)"><path fill="#175294" fill-opacity="1" d="M53.191,-16.613L45.91,-30.872C34.293,-24.64,19.39,-16.68,7.773,-10.821C-5.808,-4.013,-19.458,2.795,-33.48,8.654L-52.04,16.24C-52.582,16.477,-53.056,16.647,-53.191,16.613C-53.056,16.884,-45.876,30.906,-45.91,30.872C-43.302,30.127,-26.13,22.811,-23.827,21.93C2.218,10.618,28.128,-3.201,53.191,-16.613L53.191,-16.613Z" /></g><g id="Group 1" transform="matrix(1,0,0,1,290.416,507.885)"><path fill="#aec7e6" fill-opacity="1" d="M49.55,-22.772L45.215,-24.736C36.917,-20.299,24.623,-13.695,16.393,-9.495C-4.606,1.377,-27.4,12.181,-49.55,20.581L-49.55,20.581L-49.55,20.581C-49.55,21.97,-49.55,23.324,-49.55,24.713C-49.55,24.781,-49.178,24.713,-48.399,24.374L-29.839,16.787C-2.913,5.339,23.709,-8.919,49.517,-22.738L49.55,-22.772Z" /></g></g><g id="Group 1" transform="matrix(1,0,0,1,0,0)"><g id="Group 6" transform="matrix(1,0,0,1,371.719,558.714)"><path fill="#ed4944" fill-opacity="1" d="M39.949,5.653C15.597,15.373,-12.312,7.313,-32.362,-8.267C-33.412,-9.08,-34.462,-9.893,-35.512,-10.774L-39.949,-8.809C-39.136,-8.165,-38.323,-7.523,-37.442,-6.879C-15.766,9.514,14.446,16.288,39.949,5.653L39.949,5.653Z" /></g><g id="Group 5" transform="matrix(1,0,0,1,444.063,527.227)"><path fill="#175294" fill-opacity="1" d="M-107.856,20.714C-91.734,34.126,-70.837,42.932,-49.635,41.137C-38.594,44.253,94.952,-24.096,107.89,-28.634C102.877,-26.263,97.628,-24.67,92.209,-23.756C80.964,-21.859,69.313,-23.147,58.543,-26.771C50.347,-29.514,42.76,-33.444,35.478,-38.49C34.157,-39.404,32.836,-40.386,31.549,-41.368L-107.89,20.714L-107.856,20.714Z" /></g><g id="Group 4" transform="matrix(1,0,0,1,538.733,458.406)"><path fill="#071f3b" fill-opacity="1" d="M63.042,-39.44C63.211,-41.167,62.838,-47.636,62.94,-45.502C64.159,-20.473,53.694,7.164,30.29,18.849C13.254,27.723,-7.609,25.758,-24.34,17.155C-27.659,15.495,-30.843,13.599,-33.891,11.499C-42.663,15.326,-52.351,22.473,-63.087,27.452C-41.919,44.149,-11.945,52.209,13.22,40.152C43.939,26.232,62.974,-7.095,63.042,-39.474L63.042,-39.44Z" /></g><g id="Group 3" transform="matrix(1,0,0,1,580.511,385.589)"><path fill="#f09c65" fill-opacity="1" d="M-0.887,9.128C4.837,5.741,5.311,-2.253,2.771,-7.841C2.398,-8.688,1.958,-9.5,1.484,-10.279C0.637,-4.115,-1.124,2.794,-4.24,10.279C-3.055,10.144,-1.937,9.772,-0.853,9.128L-0.887,9.128Z" /></g><g id="Group 2" transform="matrix(1,0,0,1,579.53,390.147)"><path fill="#071f3b" fill-opacity="1" d="M8.324,-28.453C6.427,-30.756,4.496,-32.788,2.261,-34.685C3.108,-29.503,3.515,-22.763,2.431,-14.838C2.668,-14.465,2.871,-14.093,3.074,-13.72C4.598,-10.875,5.411,-7.557,5.14,-4.339C4.869,-0.817,3.21,2.774,0.06,4.569C-0.99,5.179,-2.142,5.551,-3.327,5.72C-6.782,13.984,-11.964,22.926,-19.483,32.342C-0.72,40.2,17.265,27.362,19.196,7.786C20.652,-5.829,16.486,-18.124,8.324,-28.42L8.324,-28.453Z" /></g><g id="Group 1" transform="matrix(1,0,0,1,552.937,435.5)"><path fill="#aec7e6" fill-opacity="1" d="M45.857,-47.489C47.178,-36.143,43.656,-23.171,34.579,-16.194C30.616,-13.078,25.773,-11.215,20.794,-10.809C16.425,-10.47,12.09,-11.182,7.958,-12.672C-5.115,-0.208,-21.678,18.42,-48.57,34.135C-19.747,54.829,19.879,52.458,38.778,20.079C52.19,-1.8,48.905,-28.759,45.823,-47.489L45.857,-47.489Z" /></g></g></g><g id="Group 3" transform="matrix(1,0,0,1,362.623,401.46)"><path fill="#0c3461" fill-opacity="1" d="M54.193,-25.812C55.175,-32.958,53.482,-35.735,49.214,-34.008L-43.994,9.785C-54.392,15.34,-57.778,32.747,-50.801,34.407C-49.616,34.678,-48.769,34.34,-47.855,34.001L45.353,-9.792C52.161,-13.551,54.125,-25.304,54.193,-25.812L54.193,-25.812L54.193,-25.812Z" /></g><g id="Group 2" transform="matrix(1,0,0,1,0,0)"><g id="Group 3" transform="matrix(1,0,0,1,410.226,464.075)"><path fill="#144b8a" fill-opacity="1" d="M4.083,-1.824C0.188,-8.564,-4.316,-8.123,-5.332,-4.533C-7.025,1.36,-0.049,8.642,3.846,6.813C6.081,5.763,6.183,2.037,4.083,-1.824L4.083,-1.824Z" /></g><g id="Group 2" transform="matrix(1,0,0,1,368.228,483.821)"><path fill="#144b8a" fill-opacity="1" d="M4.083,-1.824C0.188,-8.564,-4.316,-8.123,-5.332,-4.533C-7.025,1.36,-0.049,8.642,3.846,6.813C6.081,5.763,6.183,2.037,4.083,-1.824L4.083,-1.824Z" /></g><g id="Group 1" transform="matrix(1,0,0,1,389.362,473.759)"><path fill="#e9f0f7" fill-opacity="1" d="M6.929,-3.04C0.121,-14.86,-7.228,-13.709,-9.091,-7.748C-12.309,2.48,-0.252,14.876,6.691,11.591C10.518,9.796,10.621,3.768,6.895,-3.04L6.895,-3.04L6.929,-3.04Z" /></g></g><g id="Group 1" transform="matrix(1,0,0,1,425.635,530.254)"><path fill="#0c3461" fill-opacity="1" d="M54.21,-24.989C50.721,-26.378,41.984,-29.29,35.752,-26.784L-57.456,17.009C-62.74,19.922,-58.811,24.934,-51.969,26.831C-47.566,28.05,-40.792,28.322,-35.61,26.154L57.597,-17.639C63.253,-20.619,57.089,-23.77,54.21,-24.989L54.21,-24.989Z" /></g></g></g></g><g id="rocket"><g transform="translate(421.342,174.628)"><animateTransform repeatCount="indefinite" type="translate" attributeName="transform" dur="4.033s" begin="3.9s" calcMode="spline" values="421.342 174.628; 421.342 188.628; 421.342 164.628; 421.342 188.628; 421.342 174.628; 421.342 188.628; 421.342 164.628; 421.342 188.628; 421.342 174.628; 421.342 188.628; 421.342 164.628; 421.342 188.628; 421.342 174.628" keyTimes="0; 0.066; 0.165; 0.264; 0.331; 0.397; 0.496; 0.595; 0.661; 0.744; 0.843; 0.942; 1" keySplines="0.333 0 0.667 1; 0.333 0 0.667 1; 0.333 0 0.667 1; 0.333 0 0.667 1; 0.333 0 0.667 1; 0.333 0 0.667 1; 0.333 0 0.667 1; 0.333 0 0.667 1; 0.333 0 0.667 1; 0.333 0 0.667 1; 0.333 0 0.667 1; 0.333 0 0.667 1" fill="freeze" /><g transform="scale(1,1) translate(-421.342,-442.628)"><g id="body"><g transform="translate(456.57,608.4)"><g transform="rotate(0)"><animateTransform repeatCount="indefinite" type="rotate" attributeName="transform" dur="4s" begin="3.9s" calcMode="spline" values="0; 1; 0; 1; 0; 1; 0" keyTimes="0; 0.167; 0.333; 0.5; 0.667; 0.833; 1" keySplines="0.333 0 0.667 1; 0.333 0 0.667 1; 0.297 0 0.667 1; 0.333 0 0.667 1; 0.297 0 0.667 1; 0.333 0 0.667 1" fill="freeze" /><g transform="scale(1,1) translate(-456.57,-608.4)"><g id="Group 4" transform="matrix(1,0,0,1,0,0)"><g id="Group 2" transform="matrix(1,0,0,1,564.57,569.4)"><path fill="#e9f0f7" fill-opacity="1" d="M146.026,-33.585C140.336,-10.859,143.757,19.081,109.515,46.549C101.793,52.747,92.14,58.81,80.083,64.635C-6.825,106.531,-61.354,106.803,-89.025,109.004C-108.026,110.494,-128.077,100.57,-139.084,81.671C-140.608,79.131,-141.929,76.388,-143.047,73.509C-160.998,28.091,-139.524,-10.825,-121.607,-19.326C-120.557,-19.834,-119.474,-20.309,-118.356,-20.783C-96.172,-30.402,3.708,-77.683,3.708,-77.683C13.259,-82.831,26.062,-89.198,37.171,-94.312C90.108,-118.596,117.102,-105.76,117.102,-105.76C133.224,-100.612,142.098,-91.433,146.399,-80.392C151.92,-66.302,149.955,-49.199,146.06,-33.585L146.026,-33.585Z" /></g><g id="Group 1" transform="matrix(1,0,0,1,549.802,647.25)"><path fill="#aec7e6" fill-opacity="1" d="M124.283,-31.301C116.561,-25.103,106.907,-19.04,94.85,-13.215C7.942,28.681,-46.587,28.953,-74.258,31.154C-93.259,32.644,-113.309,22.721,-124.316,3.822C-108.16,-9.793,-88.991,-19.819,-69.245,-23.443C-57.221,-25.678,-5.978,-33.502,6.621,-30.149C36.595,17.234,124.316,-31.301,124.316,-31.301L124.283,-31.301Z" /></g></g><g id="Group 3" transform="matrix(1,0,0,1,657.827,510.084)"><path fill="#f2a29b" fill-opacity="1" d="M-12.361,-30.017C-12.361,-30.017,-19.033,-27.985,-25.807,-24.666C-49.854,-12.913,-31.226,53.978,23.676,23.022C41.152,13.166,36.918,-4.006,30.788,-12.71C20.526,-27.24,-1.591,-33.946,-12.361,-30.017Z" /></g><g id="Group 2" transform="matrix(1,0,0,1,0,0)"><g id="Group 2" transform="matrix(1,0,0,1,647.504,519.456)"><path fill="#aec7e6" fill-opacity="1" d="M33.998,13.615L30.408,37.425C30.408,37.425,-10.031,37.832,-28.151,8.23C-40.547,-11.99,-33.435,-32.277,-4.883,-37.425C-4.883,-37.425,-24.459,-23.742,-8.541,-0.034C5.413,20.728,33.998,13.615,33.998,13.615L33.998,13.615Z" /></g><g id="Group 1" transform="matrix(1,0,0,1,691.462,523.487)"><path fill="#aec7e6" fill-opacity="1" d="M-9.96,9.585L3.96,23.268C3.96,23.268,20.793,-1.151,-1.933,-23.268C-1.933,-23.268,5.992,-5.521,-9.96,9.585L-9.96,9.585Z" /></g></g><g id="Group 1" transform="matrix(1,0,0,1,0,0)"><g id="Group 2" transform="matrix(1,0,0,1,647.762,516.205)"><path fill="#e9f0f7" fill-opacity="1" d="M33.74,16.866L28.863,36.138C28.863,36.138,-10.831,36.747,-28.714,7.789C-40.941,-12.024,-30.373,-31.16,-2.296,-36.139C-2.296,-36.139,-25.022,-23.438,-9.307,-0.17C4.444,20.185,33.74,16.9,33.74,16.9L33.74,16.866Z" /></g><g id="Group 1" transform="matrix(1,0,0,1,691.008,519.592)"><path fill="#e9f0f7" fill-opacity="1" d="M-9.505,13.48L3.839,22.252C3.839,22.252,20.062,-0.508,-2.393,-22.252C-2.393,-22.252,6.447,-1.659,-9.505,13.48L-9.505,13.48Z" /></g></g></g></g></g></g></g></g></g><g id="rocket"><g transform="translate(421.342,174.628)"><animateTransform repeatCount="indefinite" type="translate" attributeName="transform" dur="4.033s" begin="3.9s" calcMode="spline" values="421.342 174.628; 421.342 188.628; 421.342 164.628; 421.342 188.628; 421.342 174.628; 421.342 188.628; 421.342 164.628; 421.342 188.628; 421.342 174.628; 421.342 188.628; 421.342 164.628; 421.342 188.628; 421.342 174.628" keyTimes="0; 0.066; 0.165; 0.264; 0.331; 0.397; 0.496; 0.595; 0.661; 0.744; 0.843; 0.942; 1" keySplines="0.333 0 0.667 1; 0.333 0 0.667 1; 0.333 0 0.667 1; 0.333 0 0.667 1; 0.333 0 0.667 1; 0.333 0 0.667 1; 0.333 0 0.667 1; 0.333 0 0.667 1; 0.333 0 0.667 1; 0.333 0 0.667 1; 0.333 0 0.667 1; 0.333 0 0.667 1" fill="freeze" /><g transform="scale(1,1) translate(-421.342,-442.628)"><g id="body"><g transform="translate(456.57,608.4)"><g transform="rotate(0)"><animateTransform repeatCount="indefinite" type="rotate" attributeName="transform" dur="4s" begin="3.9s" calcMode="spline" values="0; 1; 0; 1; 0; 1; 0" keyTimes="0; 0.167; 0.333; 0.5; 0.667; 0.833; 1" keySplines="0.333 0 0.667 1; 0.333 0 0.667 1; 0.297 0 0.667 1; 0.333 0 0.667 1; 0.297 0 0.667 1; 0.333 0 0.667 1" fill="freeze" /><g transform="scale(1,1) translate(-456.57,-608.4)"><g transform="matrix(1.2,0,0,1.2,-123.081,104.682)" id="Group 5"><g id="Group 5" transform="matrix(1,0,0,1,0,0)"><g id="Group 2" transform="matrix(1,0,0,1,646.483,377.934)"><path fill="#ed4944" fill-opacity="1" d="M24.894,-8.746C24.894,-8.746,26.574,15.762,5.427,18.518C-8.571,20.327,-19.683,0.902,-23.904,-5.343L-33.853,11.842C-33.853,11.842,-1.981,38.976,24.033,20.757C36.997,11.669,32.69,-11.674,32.69,-11.674L33.853,-27.05L24.938,-20.934L10.854,-19.082L24.894,-8.746Z" /></g><g id="Group 1" transform="matrix(1,0,0,1,608.258,364.8)"><path fill="#ff8666" fill-opacity="1" d="M-58.338,-20.376C-58.338,-20.376,-36.028,-23.176,-21.513,-5.13C-3.122,17.74,11.995,62.921,58.338,36.218C58.338,36.218,41.929,45.177,22.246,13.951C1.658,-18.696,-13.029,-40.231,-39.388,-44.409L-55.797,-37.734L-58.338,-20.376Z" /></g></g></g></g></g></g></g></g></g></g><g id="rocket"><g transform="translate(421.342,174.628)"><animateTransform repeatCount="indefinite" type="translate" attributeName="transform" dur="4.033s" begin="3.9s" calcMode="spline" values="421.342 174.628; 421.342 188.628; 421.342 164.628; 421.342 188.628; 421.342 174.628; 421.342 188.628; 421.342 164.628; 421.342 188.628; 421.342 174.628; 421.342 188.628; 421.342 164.628; 421.342 188.628; 421.342 174.628" keyTimes="0; 0.066; 0.165; 0.264; 0.331; 0.397; 0.496; 0.595; 0.661; 0.744; 0.843; 0.942; 1" keySplines="0.333 0 0.667 1; 0.333 0 0.667 1; 0.333 0 0.667 1; 0.333 0 0.667 1; 0.333 0 0.667 1; 0.333 0 0.667 1; 0.333 0 0.667 1; 0.333 0 0.667 1; 0.333 0 0.667 1; 0.333 0 0.667 1; 0.333 0 0.667 1; 0.333 0 0.667 1" fill="freeze" /><g transform="scale(1,1) translate(-421.342,-442.628)"><g id="body"><g transform="translate(456.57,608.4)"><g transform="rotate(0)"><animateTransform repeatCount="indefinite" type="rotate" attributeName="transform" dur="4s" begin="3.9s" calcMode="spline" values="0; 1; 0; 1; 0; 1; 0" keyTimes="0; 0.167; 0.333; 0.5; 0.667; 0.833; 1" keySplines="0.333 0 0.667 1; 0.333 0 0.667 1; 0.297 0 0.667 1; 0.333 0 0.667 1; 0.297 0 0.667 1; 0.333 0 0.667 1" fill="freeze" /><g transform="scale(1,1) translate(-456.57,-608.4)"><g id="head"><g transform="translate(665.678,483.306)"><g transform="rotate(0)"><animateTransform repeatCount="indefinite" type="rotate" attributeName="transform" dur="4s" begin="3.933s" calcMode="spline" values="0; 3; 0; 3; 0; 3; 0" keyTimes="0; 0.167; 0.333; 0.5; 0.667; 0.833; 1" keySplines="0.333 0 0.667 1; 0.333 0 0.667 1; 0.333 0 0.667 1; 0.333 0 0.667 1; 0.297 0 0.667 1; 0.333 0 0.667 1" fill="freeze" /><g transform="scale(1,1) translate(-665.678,-483.306)"><g id="Group 2" transform="matrix(1,0,0,1,0,0)"><g id="Group 4" transform="matrix(1,0,0,1,0,0)"><g id="Group 2" transform="matrix(1,0,0,1,663.432,408.628)"><path fill="#ffc5b3" fill-opacity="1" d="M68.163,87.662C38.189,102.293,-25.485,105.748,-66.907,49.356C-98.473,6.376,-101.622,-59.737,-44.282,-86.629C11.399,-112.708,53.701,-83.276,62.168,-60.753C62.168,-60.753,75.445,-15.199,80.593,1.058C99.729,61.209,83.743,80.007,68.129,87.628L68.163,87.662Z" /></g><g id="Group 1" transform="matrix(1,0,0,1,652.877,408.628)"><path fill="#f2a29b" fill-opacity="1" d="M78.751,87.662C48.743,102.293,-14.896,105.748,-56.318,49.356C-87.884,6.376,-91.034,-59.737,-33.694,-86.629C21.987,-112.708,64.29,-83.276,72.757,-60.753C72.757,-60.753,73.976,-56.553,75.839,-50.219C60.835,-33.996,46.542,-23.124,19.514,-9.881C7.423,-3.988,-13.846,3.801,-19.367,16.062C-22.618,23.276,-18.352,27.341,-14.355,34.826C1.834,65.037,-5.413,74.521,-1.044,80.617C6.069,90.541,19.311,93.555,31.47,94.537C57.448,96.603,78.751,87.696,78.751,87.696L78.751,87.662Z" /></g></g><g id="Group 3" transform="matrix(1,0,0,1,0,0)"><g id="Group 2" transform="matrix(1,0,0,1,649.724,396.663)"><path fill="#114077" fill-opacity="1" d="M-78.567,-25.621C-78.567,-25.621,-77.382,-69.177,-32.302,-88.245C13.726,-107.72,52.235,-81.979,52.235,-81.979C52.235,-81.979,59.551,-98.338,68.933,-92.072C78.315,-85.806,73.099,-74.325,73.099,-74.325C73.099,-74.325,75.672,-74.798,78.619,-75.645C83.395,-77.034,88.238,-73.817,88.746,-68.872C89.694,-59.49,89.695,-46.789,79.534,-37.61C66.257,-25.654,15.149,3.541,-14.283,13.329C-22.683,16.106,-27.425,25.081,-24.885,33.548C-21.972,43.268,-18.484,47.536,-10.389,62.405C-9.17,64.674,-9.949,67.519,-12.15,68.84L-15.435,70.838C-15.435,70.838,-17.027,88.213,-14.656,95.529C-14.656,95.529,-60.346,92.345,-85.375,24.573C-96.789,-6.316,-78.601,-25.621,-78.601,-25.621L-78.567,-25.621Z" /></g><g id="Group 1" transform="matrix(1,0,0,1,651.91,408.433)"><path fill="#0c3461" fill-opacity="1" d="M77.381,-49.381C64.104,-37.425,12.962,-8.23,-16.436,1.558C-24.869,4.335,-29.543,13.311,-27.003,21.812C-24.09,31.499,-20.602,35.765,-12.541,50.6C-11.288,52.869,-12.068,55.748,-14.269,57.069L-17.554,59.068C-17.554,59.068,-19.146,76.442,-16.775,83.758C-16.775,83.758,-61.922,80.608,-87.053,13.954C-83.971,14.259,-80.889,14.632,-77.807,14.835C-70.864,15.275,-63.243,14.496,-58.095,9.822C-49.797,2.269,-51.423,-11.685,-44.615,-20.626C-40.517,-25.977,-33.845,-28.822,-27.207,-29.94C-20.569,-31.058,-13.761,-30.719,-7.021,-30.956C29.93,-32.277,65.561,-52.802,85.679,-83.758C86.187,-82.844,86.526,-81.794,86.661,-80.676C87.609,-71.294,87.61,-58.594,77.449,-49.415L77.381,-49.381Z" /></g></g><g id="Group 2" transform="matrix(1,0,0,1,623.101,466.972)"><path fill="#f2a29b" fill-opacity="1" d="M0.417,-17.658C-2.496,-22.772,-9.439,-23.924,-13.774,-19.927C-19.464,-14.677,-24.578,-6.142,-18.719,5.678C-5.544,32.197,21.314,19.09,21.314,19.09L0.417,-17.658Z" /></g><g id="Group 1" transform="matrix(1,0,0,1,722.757,461.765)"><path fill="#6a0000" fill-opacity="1" d="M11.784,-17.701C12.868,-18.311,14.155,-17.701,14.663,-16.312L15.645,-13.671C19.811,-2.359,16.052,10.885,7.28,15.965C-1.492,21.045,-11.992,15.964,-16.158,4.686L-17.14,2.045C-17.648,0.656,-17.174,-0.969,-16.124,-1.579L11.818,-17.701L11.784,-17.701Z" /></g></g><g id="Group 1" transform="matrix(1,0,0,1,0,0)"><g id="Group 4" transform="matrix(1,0,0,1,684.118,426.359)"><path fill="#0c3461" fill-opacity="1" d="M-2.108,-5.09C-0.855,-5.801,0.636,-6.241,2.329,-6.275C4.022,-6.275,5.885,-5.902,7.985,-4.954C8.595,-4.683,8.933,-3.87,8.73,-3.125C8.628,-2.752,8.426,-2.481,8.155,-2.312C7.884,-2.177,7.579,-2.143,7.308,-2.312C5.445,-3.159,3.854,-3.464,2.465,-3.464C1.076,-3.464,-0.076,-3.092,-1.058,-2.516C-2.04,-1.974,-2.887,-1.229,-3.564,-0.416C-4.275,0.397,-4.818,1.311,-5.258,2.158C-6.139,3.851,-6.511,5.274,-6.511,5.308L-6.951,5.105L-6.511,5.308L-6.951,5.105L-6.511,5.308C-6.613,5.681,-6.815,5.986,-7.12,6.155C-7.357,6.29,-7.662,6.324,-7.967,6.189C-8.577,5.918,-8.915,5.105,-8.746,4.36C-8.746,4.292,-8.509,3.378,-7.967,2.057C-7.425,0.736,-6.578,-0.924,-5.291,-2.448C-4.444,-3.464,-3.395,-4.412,-2.142,-5.123L-2.108,-5.09Z" /></g><g><g transform="translate(690.274,442.827)"><g id="Group 3" transform="scale(1,1)"><animateTransform repeatCount="indefinite" type="scale" attributeName="transform" dur="0.167s" begin="4.833s" calcMode="spline" values="1 1; 1 0; 1 0; 1 1" keyTimes="0; 0.4; 0.6; 1" keySplines="0.333 0 0.667 1; 0.302 0 0.667 1; 0.333 0 0.667 1" fill="freeze" /><path fill="#0c3461" fill-opacity="1" d="M-4.369,-11.228C-1.829,-12.651,2.201,-8.755,4.606,-2.557C7.011,3.641,6.909,9.839,4.369,11.228C1.829,12.651,-2.201,8.755,-4.606,2.523C-7.011,-3.675,-6.909,-9.872,-4.369,-11.261L-4.369,-11.228Z" /></g></g></g><g><g transform="translate(733.051,419.119)"><g id="Group 2" transform="scale(1,1)"><animateTransform repeatCount="indefinite" type="scale" attributeName="transform" dur="0.167s" begin="4.833s" calcMode="spline" values="1 1; 1 0; 1 0; 1 1" keyTimes="0; 0.4; 0.6; 1" keySplines="0.333 0 0.667 1; 0.302 0 0.667 1; 0.333 0 0.667 1" fill="freeze" /><path fill="#0c3461" fill-opacity="1" d="M-4.369,-11.228C-1.829,-12.651,2.201,-8.755,4.606,-2.557C7.011,3.641,6.909,9.839,4.369,11.228C1.829,12.651,-2.201,8.755,-4.606,2.523C-7.011,-3.675,-6.909,-9.872,-4.369,-11.261L-4.369,-11.228Z" /></g></g></g><g id="Group 1" transform="matrix(1,0,0,1,726.931,402.705)"><path fill="#0c3461" fill-opacity="1" d="M-2.313,-5.042C-1.06,-5.753,0.227,-6.091,1.446,-6.193C2.631,-6.328,3.784,-6.193,4.732,-6.058C6.663,-5.719,7.983,-5.008,8.051,-4.974C8.661,-4.669,8.931,-3.822,8.728,-3.111C8.626,-2.772,8.423,-2.501,8.152,-2.366C7.881,-2.197,7.543,-2.197,7.238,-2.366L7.136,-2.366C7.068,-2.434,6.966,-2.502,6.831,-2.536C6.56,-2.638,6.154,-2.807,5.646,-2.942C4.63,-3.247,3.241,-3.483,1.751,-3.348C0.769,-3.246,-0.281,-2.976,-1.263,-2.4C-2.279,-1.858,-3.228,-1.011,-4.142,0.208C-5.056,1.461,-5.87,3.121,-6.547,5.356C-6.649,5.695,-6.852,5.966,-7.123,6.135C-7.394,6.27,-7.732,6.304,-8.037,6.135C-8.647,5.83,-8.951,5.017,-8.714,4.272C-7.969,1.766,-6.987,-0.233,-5.903,-1.757C-4.785,-3.281,-3.566,-4.331,-2.279,-5.042L-2.313,-5.042Z" /></g></g></g></g></g></g></g></g></g></g></g></g></g><g id="rocket"><g transform="translate(421.342,174.628)"><animateTransform repeatCount="indefinite" type="translate" attributeName="transform" dur="4.033s" begin="3.9s" calcMode="spline" values="421.342 174.628; 421.342 188.628; 421.342 164.628; 421.342 188.628; 421.342 174.628; 421.342 188.628; 421.342 164.628; 421.342 188.628; 421.342 174.628; 421.342 188.628; 421.342 164.628; 421.342 188.628; 421.342 174.628" keyTimes="0; 0.066; 0.165; 0.264; 0.331; 0.397; 0.496; 0.595; 0.661; 0.744; 0.843; 0.942; 1" keySplines="0.333 0 0.667 1; 0.333 0 0.667 1; 0.333 0 0.667 1; 0.333 0 0.667 1; 0.333 0 0.667 1; 0.333 0 0.667 1; 0.333 0 0.667 1; 0.333 0 0.667 1; 0.333 0 0.667 1; 0.333 0 0.667 1; 0.333 0 0.667 1; 0.333 0 0.667 1" fill="freeze" /><g transform="scale(1,1) translate(-421.342,-442.628)"><g id="body"><g transform="translate(456.57,608.4)"><g transform="rotate(0)"><animateTransform repeatCount="indefinite" type="rotate" attributeName="transform" dur="4s" begin="3.9s" calcMode="spline" values="0; 1; 0; 1; 0; 1; 0" keyTimes="0; 0.167; 0.333; 0.5; 0.667; 0.833; 1" keySplines="0.333 0 0.667 1; 0.333 0 0.667 1; 0.297 0 0.667 1; 0.333 0 0.667 1; 0.297 0 0.667 1; 0.333 0 0.667 1" fill="freeze" /><g transform="scale(1,1) translate(-456.57,-608.4)"><g id="r hand"><g transform="translate(565.548,574.421)"><g transform="rotate(0)"><animateTransform repeatCount="indefinite" type="rotate" attributeName="transform" dur="4s" begin="3.9s" calcMode="spline" values="0; 26; -17; 0" keyTimes="0; 0.267; 0.783; 1" keySplines="0.333 0.255 0.667 1; 0.333 0 0.667 1; 0.333 0 0.667 0.683" fill="freeze" /><g transform="scale(1,1) translate(-565.548,-574.421)"><g id="Group 2" transform="matrix(1,0,0,1,527.937,661.421)"><path fill="#e9f0f7" fill-opacity="1" d="M49.892,117.438C28.554,117.438,-11.885,111.24,-32.952,93.493C-52.461,77.067,-64.179,53.968,-66.821,26.737C-69.497,-0.561,-62.621,-31.45,-47.99,-57.969C-40.844,-70.907,-15.983,-108.4,17.547,-116.258C64.185,-127.164,87.419,-59.257,45.489,-45.54C3.593,-31.823,-0.573,10.006,1.527,22.944C2.814,30.869,14.939,55.526,50.061,53.697C71.568,52.579,73.6,117.371,49.926,117.371L49.892,117.438Z" /></g><g id="Group 1" transform="matrix(1,0,0,1,0,0)"><g id="Group 8" transform="matrix(1,0,0,1,607.276,743.438)"><path fill="#ffc5b3" fill-opacity="1" d="M17.732,31.933C10.078,35.117,-7.264,33.66,-16.476,32.576C-28.127,31.221,-40.387,25.091,-41.539,5.786C-42.691,-13.553,-27.314,-19.921,-27.314,-19.921C-27.314,-19.921,3.27,-29.912,13.634,-33.468C23.998,-37.024,45.979,-16.094,40.831,-2.546C35.683,10.968,28.469,27.53,17.766,31.967L17.732,31.933Z" /></g><g id="Group 7" transform="matrix(1,0,0,1,618.119,732.928)"><path fill="#f2a29b" fill-opacity="1" d="M2.757,-22.992C-2.831,-21.061,-24.44,-8.123,-25.998,-5.143C-29.148,5.932,-19.596,11.012,-19.596,11.012C-21.73,16.499,-15.904,27.202,-4.05,21.952C8.753,16.262,9.836,20.767,9.836,20.767C9.836,20.767,20.369,3.629,26.635,-8.259C20.606,-17.607,9.328,-25.227,2.757,-22.958L2.757,-22.992Z" /></g><g id="Group 6" transform="matrix(1,0,0,1,637.756,727.098)"><path fill="#e88282" fill-opacity="1" d="M-0.318,-4.36L-0.318,-4.36ZM-16.338,-22.04L-16.27,-22.04C-7.6,-26.375,0.97,-27.256,7.845,-24.58C11.943,-22.954,17.531,-19.297,20.681,-10.965C24.271,-1.448,22.578,8.239,15.838,16.3C11.503,21.482,6.523,24.293,5.575,24.801C0.258,27.646,-6.38,25.648,-9.191,20.297C-12.036,14.98,-10.038,8.341,-4.687,5.53C-4.687,5.53,-2.553,4.243,-0.927,2.312C1.173,-0.194,0.834,-1.719,0.258,-3.209C0.055,-3.785,-0.148,-4.09,-0.25,-4.225C-0.894,-4.327,-3.062,-4.224,-6.55,-2.497C-6.685,-2.429,-6.82,-2.362,-6.888,-2.328C-12.341,0.28,-18.844,-2.023,-21.452,-7.476C-23.383,-11.506,-22.603,-16.146,-19.86,-19.33C-18.912,-20.414,-17.727,-21.329,-16.372,-22.006L-16.338,-22.04Z" /></g><g id="Group 5" transform="matrix(1,0,0,1,599.509,714.819)"><path fill="#ffc5b3" fill-opacity="1" d="M-27.675,15.844C-27.675,15.844,-21.24,-5.629,-8.912,-11.793C1.079,-16.772,15.982,-19.719,21.333,-20.633C22.62,-20.87,23.941,-20.328,24.686,-19.244C27.023,-15.925,30.783,-8.372,22.993,-2.309C12.663,5.718,-26.388,20.688,-26.388,20.688L-27.675,15.878L-27.675,15.844Z" /></g><g id="Group 4" transform="matrix(1,0,0,1,609.672,713.272)"><path fill="#f2a29b" fill-opacity="1" d="M16.352,-14.513C21.161,-2.252,-2.411,3.573,-7.932,5.605C-14.435,7.976,-17.449,14.31,-17.551,14.513C-6.069,9.636,7.411,3.472,12.864,-0.762C18.723,-5.3,18.046,-10.686,16.386,-14.479L16.352,-14.513Z" /></g><g id="Group 3" transform="matrix(1,0,0,1,637.987,731.367)"><path fill="#e89490" fill-opacity="1" d="M-15.925,-21.532C-15.925,-21.532,-15.858,-21.532,-15.824,-21.566C-15.824,-21.566,-15.891,-21.566,-15.925,-21.532ZM-15.993,-21.532L-15.824,-21.6C-6.849,-25.868,1.213,-26.613,8.088,-23.836C12.118,-22.21,17.605,-18.552,20.721,-10.288C24.311,-0.771,22.618,8.916,15.878,16.977C11.577,22.159,6.563,24.97,5.615,25.478L-4.681,6.206L-4.783,6.274C-3.631,5.63,2.025,2.142,0.264,-2.532C0.061,-3.108,-0.142,-3.413,-0.244,-3.582C-0.752,-3.65,-2.615,-3.684,-6.51,-1.855C-6.883,-1.686,-7.154,-1.55,-7.357,-1.482C-12.912,0.855,-19.312,-1.719,-21.683,-7.274C-23.376,-11.237,-22.53,-15.639,-19.888,-18.687C-18.872,-19.872,-17.585,-20.855,-16.061,-21.532L-15.993,-21.532Z" /></g><g id="Group 2" transform="matrix(1,0,0,1,631.625,738.706)"><path fill="#f2a29b" fill-opacity="1" d="M-17.149,-23.554C-17.081,-23.554,-16.98,-23.622,-16.912,-23.656C-16.98,-23.656,-17.047,-23.588,-17.149,-23.554ZM-17.217,-23.52L-17.116,-23.52C-5.059,-29.278,3.613,-27.991,8.727,-25.925C13.062,-24.164,19.057,-20.269,22.308,-11.395C31.317,13.329,5.746,26.166,0.767,27.419C-10.85,30.332,-13.119,7.165,-5.668,4.794C-4.381,4.388,-3.365,3.744,-2.518,3.033C0.056,0.865,-1.773,-3.368,-5.092,-2.894C-5.702,-2.792,-6.346,-2.623,-7.023,-2.284C-7.328,-2.149,-7.632,-1.979,-8.005,-1.844C-14.034,0.595,-20.875,-2.284,-23.347,-8.313C-25.074,-12.547,-24.126,-17.221,-21.349,-20.472C-20.231,-21.759,-18.843,-22.809,-17.217,-23.52L-17.217,-23.52Z" /></g><g id="Group 1" transform="matrix(1,0,0,1,618.851,747.303)"><path fill="#ffc5b3" fill-opacity="1" d="M-21.785,-22.668C-24.427,-19.62,-25.443,-15.285,-24.054,-11.187C-21.954,-5.023,-15.281,-1.737,-9.151,-3.803L-8.745,-3.939L-8.745,-3.939C-6.069,-4.887,-3.427,-2.415,-4.274,0.261C-5.798,5.172,-11.488,8.559,-11.556,8.593C-16.772,12.488,-11.116,18.787,-7.255,24.003C-3.36,29.219,3.99,30.303,9.206,26.408C17.707,20.075,31.118,3.276,21.127,-15.081C14.184,-27.85,0.095,-31.983,-16.569,-26.157L-16.772,-26.089C-18.804,-25.378,-20.565,-24.192,-21.886,-22.668L-21.785,-22.668Z" /></g></g></g></g></g></g></g></g></g></g></g></g></g></svg>